<?xml version="1.0" encoding="UTF-8" standalone="no"?>
<!DOCTYPE svg PUBLIC "-//W3C//DTD SVG 1.1//EN"
 "http://www.w3.org/Graphics/SVG/1.1/DTD/svg11.dtd">
<!-- Generated by graphviz version 2.47.0 (20210316.0004)
 -->
<!-- Title: dependencies Pages: 1 -->
<svg width="658pt" height="222pt"
 viewBox="0.00 0.00 658.00 222.00" xmlns="http://www.w3.org/2000/svg" xmlns:xlink="http://www.w3.org/1999/xlink">
<g id="graph0" class="graph" transform="scale(1 1) rotate(0) translate(4 218)">
<title>dependencies</title>
<polygon fill="white" stroke="transparent" points="-4,4 -4,-218 654,-218 654,4 -4,4"/>
<text text-anchor="start" x="304.01" y="-42.4" font-family="Times-12" font-weight="bold" font-size="14.00">Legend</text>
<polygon fill="#ffffb3" stroke="transparent" points="91,-10 91,-30 111,-30 111,-10 91,-10"/>
<text text-anchor="start" x="114.63" y="-15.4" font-family="Times-12" font-size="14.00"> &#160;Declarations</text>
<polygon fill="#8dd3c7" stroke="transparent" points="204,-10 204,-30 224,-30 224,-10 204,-10"/>
<text text-anchor="start" x="227.73" y="-15.4" font-family="Times-12" font-size="14.00"> &#160;Module</text>
<polygon fill="#80b1d3" stroke="transparent" points="290,-10 290,-30 310,-30 310,-10 290,-10"/>
<text text-anchor="start" x="313.78" y="-15.4" font-family="Times-12" font-size="14.00"> &#160;Bootstrap</text>
<polygon fill="#fdb462" stroke="transparent" points="387,-10 387,-30 407,-30 407,-10 387,-10"/>
<text text-anchor="start" x="410.67" y="-15.4" font-family="Times-12" font-size="14.00"> &#160;Providers</text>
<polygon fill="#fb8072" stroke="transparent" points="483,-10 483,-30 503,-30 503,-10 483,-10"/>
<text text-anchor="start" x="506.73" y="-15.4" font-family="Times-12" font-size="14.00"> &#160;Exports</text>
<g id="clust1" class="cluster">
<title>cluster_AppModule</title>
<polygon fill="none" stroke="black" stroke-dasharray="1,5" points="8,-70 8,-198 374,-198 374,-70 8,-70"/>
</g>
<g id="clust3" class="cluster">
<title>cluster_AppModule_imports</title>
<polygon fill="none" stroke="black" points="154,-78 154,-130 366,-130 366,-78 154,-78"/>
</g>
<g id="clust6" class="cluster">
<title>cluster_AppModule_providers</title>
<polygon fill="none" stroke="black" points="16,-78 16,-130 146,-130 146,-78 16,-78"/>
</g>
<g id="clust13" class="cluster">
<title>cluster_UserModule</title>
<polygon fill="none" stroke="black" stroke-dasharray="1,5" points="382,-138 382,-206 642,-206 642,-138 382,-138"/>
</g>
<g id="clust16" class="cluster">
<title>cluster_UserModule_exports</title>
<polygon fill="none" stroke="black" points="530,-146 530,-198 634,-198 634,-146 530,-146"/>
</g>
<g id="clust18" class="cluster">
<title>cluster_UserModule_providers</title>
<polygon fill="none" stroke="black" points="390,-146 390,-198 522,-198 522,-146 390,-146"/>
</g>
<!-- RedisModule -->
<g id="node1" class="node">
<title>RedisModule</title>
<polygon fill="#8dd3c7" stroke="black" points="253.94,-122 250.94,-126 229.94,-126 226.94,-122 162.06,-122 162.06,-86 253.94,-86 253.94,-122"/>
<text text-anchor="middle" x="208" y="-99.8" font-family="Times,serif" font-size="14.00">RedisModule</text>
</g>
<!-- AppModule -->
<g id="node3" class="node">
<title>AppModule</title>
<polygon fill="#8dd3c7" stroke="black" points="249.66,-190 246.66,-194 225.66,-194 222.66,-190 166.34,-190 166.34,-154 249.66,-154 249.66,-190"/>
<text text-anchor="middle" x="208" y="-167.8" font-family="Times,serif" font-size="14.00">AppModule</text>
</g>
<!-- RedisModule&#45;&gt;AppModule -->
<g id="edge1" class="edge">
<title>RedisModule&#45;&gt;AppModule</title>
<path fill="none" stroke="black" d="M208,-122.22C208,-122.22 208,-143.73 208,-143.73"/>
<polygon fill="black" stroke="black" points="204.5,-143.73 208,-153.73 211.5,-143.73 204.5,-143.73"/>
</g>
<!-- UserModule -->
<g id="node2" class="node">
<title>UserModule</title>
<polygon fill="#8dd3c7" stroke="black" points="357.98,-122 354.98,-126 333.98,-126 330.98,-122 272.02,-122 272.02,-86 357.98,-86 357.98,-122"/>
<text text-anchor="middle" x="315" y="-99.8" font-family="Times,serif" font-size="14.00">UserModule</text>
</g>
<!-- UserModule&#45;&gt;AppModule -->
<g id="edge2" class="edge">
<title>UserModule&#45;&gt;AppModule</title>
<path fill="none" stroke="black" d="M300.67,-122.29C300.67,-144.21 300.67,-178 300.67,-178 300.67,-178 259.73,-178 259.73,-178"/>
<polygon fill="black" stroke="black" points="259.73,-174.5 249.73,-178 259.73,-181.5 259.73,-174.5"/>
</g>
<!-- UserService  -->
<g id="node5" class="node">
<title>UserService </title>
<polygon fill="#fb8072" stroke="black" points="625.9,-190 538.1,-190 538.1,-154 625.9,-154 625.9,-190"/>
<text text-anchor="middle" x="582" y="-167.8" font-family="Times,serif" font-size="14.00">UserService </text>
</g>
<!-- UserModule&#45;&gt;UserService  -->
<g id="edge4" class="edge">
<title>UserModule&#45;&gt;UserService </title>
<path fill="none" stroke="black" stroke-dasharray="5,2" d="M358.19,-104C433.76,-104 582,-104 582,-104 582,-104 582,-143.78 582,-143.78"/>
<polygon fill="black" stroke="black" points="578.5,-143.78 582,-153.78 585.5,-143.78 578.5,-143.78"/>
</g>
<!-- AppService -->
<g id="node4" class="node">
<title>AppService</title>
<ellipse fill="#fdb462" stroke="black" cx="81" cy="-104" rx="56.74" ry="18"/>
<text text-anchor="middle" x="81" y="-99.8" font-family="Times,serif" font-size="14.00">AppService</text>
</g>
<!-- AppService&#45;&gt;AppModule -->
<g id="edge3" class="edge">
<title>AppService&#45;&gt;AppModule</title>
<path fill="none" stroke="black" d="M81,-122.22C81,-142.37 81,-172 81,-172 81,-172 156.06,-172 156.06,-172"/>
<polygon fill="black" stroke="black" points="156.06,-175.5 166.06,-172 156.06,-168.5 156.06,-175.5"/>
</g>
<!-- UserService -->
<g id="node6" class="node">
<title>UserService</title>
<ellipse fill="#fdb462" stroke="black" cx="456" cy="-172" rx="58.44" ry="18"/>
<text text-anchor="middle" x="456" y="-167.8" font-family="Times,serif" font-size="14.00">UserService</text>
</g>
<!-- UserService&#45;&gt;UserModule -->
<g id="edge5" class="edge">
<title>UserService&#45;&gt;UserModule</title>
<path fill="none" stroke="black" d="M400.81,-166C366.67,-166 329.33,-166 329.33,-166 329.33,-166 329.33,-132.27 329.33,-132.27"/>
<polygon fill="black" stroke="black" points="332.83,-132.27 329.33,-122.27 325.83,-132.27 332.83,-132.27"/>
</g>
</g>
</svg>
